<svg version="1.2" xmlns="http://www.w3.org/2000/svg" viewBox="0 0 1408 895" width="1408" height="895"><style>.a{fill:#0c417e}.b{fill:#f0f2f3}</style><path class="a" d="m0 447.5v447.5h1408v-895h-1408z"/><path class="b" d="m648 67.9c-3.9 0.4-8 1.6-10.3 2.9-2.7 1.6-4.4 3.8-6.4 7.9-2.2 4.9-2.5 6.7-2.1 11.8 0.4 4.9 1 6.4 3.2 8.2 1.4 1.3 3.7 2.3 5.1 2.3 1.4 0 3.9-0.7 5.5-1.5 2.8-1.4 3.3-1.3 6.5 0.5 2 1.1 4.9 1.9 6.8 1.7 3-0.2 3.2-0.4 3.2-4.2 0-3.6-0.3-4-2.9-4.5-1.6-0.3-3.2-1.2-3.7-2-0.4-0.8-1-2.3-1.3-3.3-0.4-1.1-1.6-1.7-3.6-1.7-2.5 0-3.3 0.6-4.5 3.5-1.2 2.7-2 3.4-3.7 3.2-1.8-0.1-2.4-0.9-2.6-3.7-0.1-1.9 0.4-4.6 1.1-6 0.7-1.4 2.8-3.3 4.7-4.2 2.2-1.2 5.8-1.8 9.8-1.8h6.2c0-9.6-0.2-10-2.2-9.9-1.3 0.1-5.2 0.5-8.8 0.8zm-295 20.1v4h-28.5c-2.8 5.8-3.3 7.7-2.9 8 0.3 0.3 10.2 0.6 22 0.7l21.4 0.3v-17h-12zm61 0v4h-28.5c-2.8 5.8-3.3 7.7-2.9 8 0.3 0.3 10.2 0.6 22 0.7l21.4 0.3v-17h-12zm60 0v4h-28.5c-2.8 5.8-3.3 7.7-2.9 8 0.3 0.3 10.2 0.6 22 0.7l21.4 0.3v-17h-12zm476.4-3.1c-4.1 0.4-8.1 1.3-9.7 2.3-1.5 1-3.4 3.4-4.2 5.3-0.8 1.9-1.5 4.4-1.5 5.5 0 1.1 2 3.9 4.5 6.2l4.6 4.3-0.1 59.5h12l-1.3-61.5c-5.7-8-6-8.8-4.7-9.5 0.8-0.6 4.3-1 7.8-1h6.2v-12c-5 0.3-9.7 0.6-13.6 0.9zm80.6-0.2c-3 0.2-7.4 0.9-9.8 1.6-3.5 1-4.5 1.8-5.7 4.9-0.8 2.1-1.5 4.9-1.5 6.3 0 1.6 1.4 3.9 3.9 6.2l3.8 3.8c1 29.4 1.3 43.1 1.3 49.2v11.3c4.3 0 7 0.3 8.9 0.7l3.3 0.8-0.7-61c-5-7.8-6.5-10.6-6.5-11.3 0-0.8 2.2-1.2 7.5-1.2h7.5v-12c-5 0.3-9 0.5-12 0.7zm173.1 0.6c-1.4 0.7-3.5 2.7-4.8 4.5-2 2.7-2.2 3.7-1.3 6.4 0.6 1.8 1.9 4.2 3 5.3 1.4 1.4 3.4 2 6.5 2 3.5 0 5-0.6 7.2-2.8 2-1.9 2.8-3.8 2.8-6.1 0-2-0.8-4.3-2-5.6-1.1-1.3-3.5-2.9-5.2-3.6-1.8-0.8-3.4-1.4-3.5-1.4-0.2 0-1.4 0.6-2.7 1.3zm-1007.1 8.2v8.5h37v-11h-26c0-3.9-0.7-5.2-1.5-5.5-0.8-0.3-3.3-0.5-5.5-0.5h-4zm362-4c0 3.8-0.3 4.4-1.7 4.1-1-0.3-5-0.8-8.9-1.2-3.9-0.3-9.6-0.4-12.5 0-3.5 0.4-5.8 1.3-6.5 2.4-0.6 0.9-1.4 3.2-1.8 4.9l-0.6 3.3h44v-18h-12zm203-0.3v4.3c-11.2-1.3-17.6-1.4-21.5-1.1-3.8 0.2-7.6 1.1-8.3 1.8-0.6 0.7-1.5 3-2 5.1l-0.7 3.7h44.5v-18h-12zm371-0.3v4h-28.5c-2.8 5.9-3.3 7.8-2.9 8 0.3 0.3 10.2 0.7 22 0.8l21.4 0.2v-17h-12zm148.6-1.3c-0.5 0.4-0.9 2-0.8 3.5 0.1 1.6 0.9 4.1 1.8 5.6 0.8 1.5 2.5 3.4 3.7 4.2 1.5 0.9 6.6 1.6 15.5 2l13.2 0.5v-10.5c-14.3 0-19.5-0.2-20.7-0.5-1.3-0.2-2.3-1.1-2.3-2 0-0.8-0.3-1.6-0.7-1.8-0.5-0.2-2.6-0.7-4.8-1.1-2.2-0.4-4.5-0.3-4.9 0.1zm-1157.5 7.6c-1.1 2.3-2.1 4.8-2.1 5.5 0 1 4.8 1.2 20.5 1.2h20.5v-11h-36.8zm609.2 15.9c-1.1 0.4-2.9 2.6-4.1 4.9-1.9 3.4-2 4.1-0.7 4.5 0.8 0.3 2.9 0.5 4.7 0.5 1.8 0 4.1 0.5 5 1.2 1.7 1.2 1.5 1.7-1.7 6.5-2 3-4 7.6-4.6 10.5-0.6 2.9-0.7 8-0.4 11.3 0.4 3.3 1.3 7.1 2 8.5 0.7 1.4 2.6 3.7 4.1 5.2 1.6 1.5 4.1 3.2 5.6 3.7 1.5 0.6 5.7 1.1 9.3 1.1 3.6 0 8.1-0.7 10.2-1.6 2.1-0.8 4.6-2.3 5.6-3.2 1-0.9 2.8-3.5 3.9-5.7 1.5-3 2-5.9 2-12 0-4.4-0.6-9.4-1.2-11-0.7-1.7-2.3-4.2-3.6-5.8-1.9-2.1-2.2-3.1-1.4-4.7 0.5-1.1 2.1-2.5 3.5-3 1.6-0.6 2.5-1.8 2.5-3.3 0-1.2 0.2-3.2 0.5-4.5 0.4-2.1 0.2-2.2-5.3-2.2h-5.7l-7.8 15.5c5.2 8.1 5.8 10.3 6.2 16.4 0.4 7.4 0.3 7.7-2.7 10.8-2.2 2.3-4 3.3-6.2 3.3-1.9 0-4-0.9-5.5-2.5-2.3-2.2-2.5-3.3-2.5-10.3-0.1-6.9 0.3-8.2 3.1-12.7 1.7-2.8 3.5-6.1 4.1-7.5 0.5-1.4 0.7-4.9 0.3-7.8-0.4-4.1-1-5.4-2.8-6.3-1.9-1-2.5-0.8-3.9 1.2-1.5 2.1-2 2.2-3.8 1.1-1.1-0.6-3.1-1.6-4.4-2.1-1.3-0.5-3.2-0.5-4.3 0zm-665.1 21.6c0.4 17.3 0.8 22.5 2.1 25 0.9 1.8 2.9 4.5 4.4 5.9 1.5 1.4 4.2 3.2 6 4 1.8 0.8 6.3 1.4 10 1.4 4.4 0 8.2-0.7 10.8-1.9 2.2-1 4.9-2.9 6.1-4.2 1.2-1.3 2.8-3.8 3.5-5.4 0.8-2 1.3-10.6 1.5-24.8l0.4-21.7h-12v42c-5.2 4.3-7.3 5-10.3 5-3.2 0.1-4.9-0.6-7-2.5l-2.7-2.5v-42h-13.3zm66.6-20.9c-2.6 0.4-5.6 1.5-6.9 2.6-1.2 1.1-2.7 3.2-3.4 4.5-0.7 1.4-1.6 4.1-1.9 6-0.4 2-0.2 5.2 0.3 7.3 0.6 2.1 2 4.8 3.3 6.1 1.5 1.6 5.3 3 12.2 4.7 5.5 1.4 11 3.2 12.2 4.2 1.5 1.1 2.3 2.8 2.3 4.7 0 1.7-0.9 3.9-2 5-1.5 1.5-3.3 2.1-7.2 2.1-3 0-6.2-0.7-7.5-1.5-1.3-0.9-2.3-2.5-2.3-3.6 0-1.1-0.6-2.2-1.5-2.5-0.8-0.2-3.2-0.4-5.2-0.4-2.1 0-4.4 0.3-5.1 0.7-1.1 0.6-1 1.5 0.3 4.7 0.9 2.2 3.1 5.5 4.8 7.3 1.8 1.8 5 3.7 7.2 4.3 2.2 0.6 7.2 1 11 0.8 4.6-0.3 8.4-1.1 11-2.5 2.2-1.1 4.9-3.3 6-4.8 1.2-1.6 2.2-4.8 2.4-7.9 0.2-2.8 0.1-6.4-0.2-7.9-0.4-1.6-2.2-3.7-4.4-5.2-2.1-1.4-7.6-3.5-12.3-4.6-4.6-1.2-9.5-2.8-10.7-3.5-1.7-1.1-2.3-2.4-2.3-5 0-2.5 0.7-3.9 2.3-5 1.2-0.8 3.9-1.5 6-1.5 3 0 4.5 0.8 7.7 4 3.5 3.5 4.6 4 8.5 4 2.7 0 4.8-0.5 5.1-1.2 0.3-0.7-0.2-3.1-1.1-5.3-0.8-2.2-2.6-5-3.8-6.3-1.2-1.2-4.4-2.9-7.2-3.7-2.7-0.8-6.8-1.4-9-1.3-2.2 0.1-6.1 0.4-8.6 0.7zm39.4 0.9c-0.3 1-0.3 10.9 0.1 22 0.5 16.2 1 21 2.4 23.9 0.9 2 3.3 4.9 5.2 6.3 1.9 1.4 6 3.1 9 3.7 3.6 0.8 7.1 0.9 10 0.4 2.5-0.5 5.9-1.4 7.5-2 1.7-0.7 4.1-2.2 5.4-3.4 1.3-1.2 3-3.4 3.7-4.9 0.8-1.5 1.8-6.6 2.2-11.3 0.6-6.6 1.1-8.5 2.2-8.4 0.9 0 2.1-0.5 2.8-1.3 0.7-0.7 1.1-3 1-5.3-0.2-3.5-0.6-4-3-4.2l-2.8-0.3 0.1-17.5c-5.1 1.2-7.8 1.6-9.3 1.6-2.6 0-2.8 0.2-2.8 4.2 0 2.3-0.3 5.9-0.7 8-0.6 2.9-1.2 3.8-2.8 3.8-1.1-0.1-2.8 0.5-3.7 1.2-1.1 0.8-1.9 2.8-2 5.2l-0.3 4 8.5 0.5c0 13.4-0.2 14.3-2.9 17-2.3 2.4-3.8 3-7 3-2.8 0-4.9-0.7-6.7-2.2-2.6-2.2-2.7-2.3-3.6-23.3-0.5-11.5-1-21-1.1-21.1-0.1 0-2.6-0.3-5.5-0.7-4.4-0.5-5.4-0.3-5.9 1.1zm60.7 27.2v29h13v-42c5.1-4.2 7.2-5 10-5 2.8 0 4.9 0.8 7 2.5l3 2.5c0 31.8 0.4 41.2 0.8 41.4 0.4 0.1 3.4 0.1 6.7-0.1l6-0.5c-1.3-37.5-1.9-44.5-2.9-46.5-0.8-1.5-2.7-4-4.2-5.4-1.6-1.5-4.9-3.2-7.5-3.9-3.2-0.8-5.8-0.8-8.5-0.1-2.2 0.6-5.5 2.6-7.6 4.8l-3.8 3.8v-9.5h-12zm83.6-28.3c-0.5 0.4-0.8 13.2-0.7 29l0.1 28.3h13c0-30.2 0.5-40.1 1-41.5 0.6-1.3 2.5-3.2 4.4-4 2-1 4.6-1.4 6.7-1.1 1.9 0.3 4.3 1.5 5.4 2.7 1.9 2 2.1 3.7 2.3 23.1l0.2 20.8h14c-1-35.2-1.7-44.6-2.4-46.5-0.7-1.6-2.8-4.4-4.7-6.2-1.8-1.8-5.1-3.8-7.1-4.3-2.1-0.5-5.7-0.6-8-0.3-2.7 0.5-5.6 1.9-8 4-2.9 2.6-3.9 3-4.3 1.8-0.2-0.8-0.5-2.4-0.5-3.5 0-1.5-0.6-2-3.2-2-1.8 0-4.2-0.2-5.3-0.5-1.1-0.3-2.4-0.2-2.9 0.2zm69.7 0.7c-1.8 0.6-4.8 2.4-6.8 3.9-1.9 1.5-4.4 4.5-5.5 6.7l-2 4c3.5 0.8 6.4 1 8.8 1 3.3 0 4.7-0.5 6.5-2.6 1.8-2.1 3.3-2.7 7.7-3 3.4-0.3 6.5 0.1 8 0.9 1.3 0.7 3.3 2.8 4.4 4.7 1.6 2.8 2 5.4 2 12 0 6.7-0.4 9.3-2 12-1.1 2-3.1 4.1-4.4 4.8-1.4 0.7-4.6 1.2-7.2 1.2-3.9 0-5.3-0.5-7.6-2.7-1.6-1.5-3-3.4-3.2-4.1-0.3-0.8-2.4-1.5-5.5-1.8-2.7-0.2-5.5-0.1-6.2 0.4-1 0.6-1 1.5-0.1 4.2 0.6 2 2.2 5 3.5 6.8 1.3 1.8 4.2 4.2 6.6 5.4 2.9 1.5 6.7 2.3 12.2 2.7 5.2 0.3 9.5-0.1 12-0.9 2.2-0.7 5.8-3.1 8.1-5.4 2.6-2.6 4.6-6 5.7-9.6 1.1-3.2 1.8-8.5 1.8-13 0-4.1-0.7-9.8-1.6-12.7-1-3.5-2.8-6.5-5.5-9.3-2.7-2.7-5.7-4.4-9.2-5.5-2.9-0.8-8-1.4-11.3-1.4-3.3 0.1-7.4 0.6-9.2 1.3zm62.2 0.2c-2.2 0.8-5.5 2.9-7.3 4.7-1.9 1.8-4.3 5.2-5.3 7.5-1.5 3.3-1.9 6.7-1.9 15.7 0 9.1 0.4 12.4 1.9 15.8 1 2.3 2.8 5.3 4 6.5 1.2 1.2 3.5 2.9 5.1 3.7 1.7 0.9 6.6 1.9 11 2.3l8.1 0.7c0-5.4-0.3-8.4-0.6-10.2-0.4-3-0.6-3.2-3-2.3-1.3 0.6-3.7 1.1-5.2 1.1-1.6 0-3.7-1-5-2.3-1.2-1.2-2.7-3.8-3.2-5.8-0.6-1.9-1.1-6.1-1.1-9.5 0-3.3 0.5-7.6 1-9.7 0.6-2.1 2.4-4.9 4-6.3 2.4-1.9 4.2-2.5 8-2.5 2.8 0 5.9 0.5 7 1 1.1 0.6 2.7 2.4 3.5 4 1.2 2.4 1.5 7.2 1.5 22.5v19.5h14c-0.8-18.9-1.2-28.5-1.4-33.5-0.2-5.2-0.9-10.2-1.8-12-0.9-1.6-3.3-4.6-5.4-6.5-2.6-2.5-5.5-4-9.1-4.8-2.9-0.6-7.4-1.1-10-1.1-2.6 0-6.6 0.7-8.8 1.5zm80.9-0.7c-1.2 0.5-2.9 1.7-3.7 2.8-0.8 1-1.6 2.7-1.8 3.8-0.3 1.7 0.3 2.1 4.3 2.5 2.6 0.3 5.2 1 5.8 1.5 0.8 0.8 0 2.5-2.6 6-2.1 2.8-4.1 6.9-4.6 9-0.5 2.2-0.6 7.9-0.1 12.5 0.5 6.1 1.3 9.4 2.8 11.5 1.1 1.7 4.1 4.1 6.5 5.3 3.3 1.7 6.4 2.3 11 2.4 4.3 0 7.7-0.5 10-1.7 2-0.9 4.6-2.6 5.9-3.8 1.3-1.2 2.9-3.3 3.6-4.7 0.7-1.3 1.6-4.9 1.9-8 0.3-3 0.3-8-0.1-11.1-0.6-4.5-1.5-6.4-4-9-1.8-1.9-3.2-3.9-3.3-4.6 0-0.7 0.4-1.3 0.8-1.3 0.4 0 1.9-1 3.2-2.1 1.4-1.2 2.8-3.8 3.2-5.8 0.5-2.3 0.3-3.8-0.5-4.3-0.6-0.4-3.2-0.7-5.7-0.8h-4.5c-5 10.9-6.5 14.6-6.5 15.3 0 0.7 1.2 3.5 2.6 6.2 1.9 3.8 2.5 6.6 2.5 11.3-0.1 4.1-0.7 7.3-1.8 9.3-1 1.7-2.7 3.3-3.8 3.6-1.1 0.3-3.2 0.3-4.7 0-1.6-0.4-3.6-2-4.8-3.9-1.7-2.6-2-4.5-1.8-10.3 0.3-6 0.8-7.6 3.8-12 2-2.9 3.5-6.2 3.5-8 0-1.7-0.8-4.3-1.7-5.7-1-1.5-2.8-3.4-4-4.2-1.3-0.8-3.8-1.6-5.8-1.9-1.9-0.3-4.4-0.2-5.6 0.2zm53.3 27.4c0.3 15.5 0.7 28.3 0.7 28.4 0.1 0 2.7 0.4 5.9 0.7l5.7 0.6v-58h-12.9zm39.3-26.9c-2 0.7-4.4 1.9-5.5 2.7-1.1 0.8-2.5 2.2-3.2 3-0.7 0.8-2.2 3.2-3.3 5.2-1.1 2.1-1.6 4.3-1.2 4.9 0.5 0.8 2.3 0.9 5.2 0.4 2.5-0.3 6.6-2 9-3.6 3.2-2 5.8-2.9 9-2.9 3.3-0.1 5.4 0.6 7.5 2.2 1.6 1.3 3.5 3.8 4.2 5.5 0.7 1.8 1.3 6.4 1.3 10.3 0 3.8-0.6 8.5-1.3 10.2-0.7 1.8-2.6 4.3-4.2 5.6-2.2 1.7-4.3 2.3-7.7 2.2-4.1 0-5.3-0.5-8.3-3.5-1.9-1.9-3.5-4.4-3.5-5.5 0-1.6 0.7-2 3.8-2 2 0 4.3-0.4 5-0.8 0.8-0.4 1.7-2.8 2-5.5l0.7-4.7h-25.5c0.9 10.5 1.6 15.2 2.1 17.2 0.5 2.1 2.6 5.7 4.7 8 2 2.2 5.6 4.9 8 6 2.6 1.1 6.7 1.8 11 1.9 3.8 0 8.7-0.7 11.2-1.6 2.5-0.9 6-3 7.8-4.8 1.8-1.8 4.2-5.6 5.3-8.5 1.4-3.7 1.9-7.7 1.9-14 0-4.8-0.4-10.3-0.9-12.2-0.5-1.9-3.1-5.9-5.8-8.8-3.7-4.2-5.9-5.7-9.8-6.8-2.7-0.8-7.4-1.4-10.5-1.4-3 0.1-7.1 0.6-9 1.3zm46.2 21.4c0.4 18.2 0.8 23.4 2.1 25.8 0.8 1.6 2.6 4 3.9 5.2 1.3 1.2 4.6 2.7 7.3 3.3 2.8 0.6 6.6 0.8 8.5 0.4 2-0.4 4.4-1.1 5.5-1.7 1.1-0.6 3-2.2 4.2-3.6l2.3-2.6v8.5h14v-58c-9.7 1-12.5 1.3-12.6 1.4-0.1 0-0.6 9.5-1.2 21.1-0.9 20.9-1 21-3.6 23.2-1.4 1.3-3.7 2.3-5.1 2.3-1.3 0-4-0.7-6-1.5q-3.5-1.5-5-5c-1.1-2.7-1.5-7.8-1.5-22.5v-19h-13.2zm139.8 4.2c0 14.9 0.2 27.7 0.5 28.5 0.3 1.1 2 1.5 6 1.5h5.5v-57h-12zm23 1.5v28.5l11.5 0.1c1.4-36.7 1.7-39.9 3.3-42.1 1.5-2 2.9-2.5 7.3-2.8 4.5-0.2 5.7 0.1 7.4 1.9 1.8 2 2 3.7 2.2 23.1l0.3 20.8h13c-1.2-40.7-1.6-45-3-48-1-1.9-2.9-4.4-4.2-5.6-1.3-1.2-4.2-2.7-6.6-3.3-3-0.8-5.3-0.8-8-0.1-2 0.6-5.2 2.5-7 4.3l-3.3 3.2 0.1-8.5h-13zm70.4-27.6c-2.2 0.3-5.9 1.9-8.2 3.4q-4.2 2.7-6.4 7.5c-2 4.3-2.2 6.7-2.5 25.5l-0.3 20.7h13l0.5-19.5c8.5-2.7 11.8-4.3 12.8-5.2 1.1-1 1.9-3.4 2-5.8 0.2-3.6 0-3.9-2.1-3.7-1.2 0.1-4.2 1.1-6.7 2.2-2.5 1.1-5 2-5.5 2-0.6 0-1-2.2-1-5 0-4.1 0.5-5.4 2.9-8 2.4-2.4 3.8-3 7.3-3 2.5 0 5.3 0.8 6.7 1.8 1.4 1 3 3.2 3.8 5 0.9 2.2 1.3 8.6 1.3 20.7v17.5c4.2 0 7 0.4 8.8 0.8l3.4 0.7c-1-32.5-1.5-43.4-1.8-45.2-0.2-1.8-1.7-4.7-3.2-6.4-1.5-1.8-4.1-3.7-5.7-4.4-1.7-0.7-5.7-1.5-9-1.8-3.3-0.3-7.8-0.2-10.1 0.2zm64.4-0.2c-1 0.3-2.1 1.7-2.4 3.2-0.4 1.4-0.5 10.5-0.1 20.1 0.4 9.7 1.1 19.2 1.7 21.3 0.5 2.1 2.4 5.3 4.2 7.3 2.3 2.5 4.6 3.7 7.8 4.3 2.5 0.5 6.3 0.6 8.5 0.3 2.2-0.4 5.7-1.9 7.8-3.4l3.7-2.8 0.5 6.5c7.7-0.5 10-0.7 10.1-0.8 0.1-0.1 0.3-12.8 0.5-28.3l0.4-28.2c-7.8 0.9-10.1 1.2-10.2 1.2-0.1 0.1-0.6 9.4-1.1 20.6l-1 20.5c-4.7 3.7-7.1 4.5-9.5 4.5-2.7 0-4.6-0.7-7-2.9l-3.2-2.9-0.6-41.2c-6.5 0.2-9.2 0.5-10.1 0.7zm93.6 0.2c-2.2 0.3-5.8 1.9-8 3.3-2.2 1.5-4.5 3.8-5.2 5-0.7 1.3-1.7 3.8-2.2 5.6-1 3.1-0.9 3.3 1.7 3.9 1.5 0.3 4.4 0.3 6.3 0 1.9-0.3 3.7-1.2 3.9-1.9 0.2-0.7 1.7-2.5 3.2-4 2.2-2.2 3.6-2.8 7.3-2.8 3.8 0 5.1 0.6 7.6 3 2.1 2.1 3 4 3 6.3v3.2c-21.4 1.4-24.1 2-27 3.8-1.9 1.3-4.3 3.9-5.3 5.8-0.9 1.9-1.7 5.1-1.7 7.2 0 2.1 0.7 5.4 1.5 7.5 0.9 2.1 2.4 4.6 3.3 5.6 0.9 1 3 2.5 4.7 3.4 1.6 0.8 6 1.8 9.7 2.1l6.8 0.6v-11.5c-9.3 0-10.3-0.3-12.1-2.7-1.1-1.5-2-3.3-2-4 0.1-0.7 0.6-2.4 1.3-3.8 0.7-1.4 2-2.7 2.8-3 0.8-0.3 5.2-0.9 9.7-1.3l8.3-0.7v26.5h13c-1-35.6-1.7-44.5-2.5-46.5-0.7-1.6-2.2-4-3.4-5.2-1.2-1.2-3.4-2.9-4.9-3.6-1.5-0.8-5.6-1.7-9.2-2-3.6-0.3-8.4-0.2-10.6 0.2zm47.6 0.9c-1.8 1-4.3 3-5.5 4.6-1.4 1.9-2 4.3-2 7.6 0 3.6 0.6 5.6 2.7 8.4 2.8 3.6 2.8 3.7 0.8 5.9-1 1.2-2.4 3.5-3 5-0.5 1.5-1 3.8-1 5 0 1.2 0.4 3.9 1 6 0.5 2.1 2.5 5.4 4.3 7.5 1.9 2.1 5.2 4.3 7.3 5 2.1 0.7 6.1 1.2 8.9 1.2 2.7 0 6.7-0.4 8.7-1 2.1-0.5 5.2-2.2 6.9-3.7 1.8-1.5 3.9-4.3 4.7-6.3 1.1-2.6 1.5-8.6 1.6-25.2l0.1-21.8h-11.6c-0.4 39.7-0.6 42.2-2.2 43.8-1.2 1.1-3.8 1.9-7.5 2.1-5.3 0.4-5.9 0.2-8-2.5-1.3-1.6-2.3-4.1-2.3-5.6 0.1-1.5 1-3.7 2.1-4.8q2-2 6-2h4v-11c-9.8-0.4-11.6-0.9-12.4-2.2-0.8-1.3-0.8-2.2 0-3.5 0.8-1.2 2.6-1.8 6.2-2l5.2-0.3c0-5.8-0.3-8.5-0.5-9.7-0.5-2-1.1-2.2-5.8-2.2-3 0-6.7 0.7-8.7 1.7zm76.5-0.2c-2.2 0.8-5 2.5-6.3 3.7-1.3 1.2-2.9 3.7-3.8 5.5-0.8 1.8-1.4 4.2-1.4 5.2 0 1.9 0.5 2 5.5 1.5 4.4-0.4 6-1 8.4-3.5 2.2-2.2 3.8-3 6.5-3 2.5 0 4.5 0.9 6.8 3 3.1 2.8 3.3 3.3 3.6 11.2 0.2 4.6-0.1 10.3-0.7 12.6-0.6 2.3-2.2 5.6-3.6 7.2-1.4 1.7-2.9 2.9-3.3 2.7-0.4-0.3-1-3.1-1.3-6.3-0.4-3.2-1.3-7.2-2-8.8-0.8-1.6-2.5-3.7-3.9-4.7-1.4-0.9-4.8-2.1-7.5-2.5l-5-0.7c1.3 8.3 2.3 10.5 4 11.8 1.3 1.1 2.9 3.3 3.4 4.8 0.6 1.5 1.1 5.7 1.1 9.2v6.5c10.4-0.8 14.9-1.3 16.7-1.5 2.3-0.3 4.3-1.7 6.8-4.7 2-2.3 4.2-6.5 5-9.3 0.9-2.8 1.6-9.3 1.6-15 0.1-8.7-0.2-10.6-2.4-15-1.4-2.7-3.3-5.7-4.4-6.6-1-1-3.5-2.4-5.6-3.3-2-0.8-6.1-1.5-9-1.5-2.9 0-7 0.7-9.2 1.5zm43.3-0.5c-0.9 0.6-2.3 2.7-3.2 4.6-0.9 1.8-1.6 3.6-1.6 3.8 0 0.3 2.7 0.5 6 0.5 3.3 0 6.9 0.5 8 1 1.1 0.6 2.7 2.6 3.5 4.5 1.1 2.8 1.5 7.9 1.5 22.6v18.9h12c-1.1-37.2-1.7-45.3-2.6-47-0.7-1.3-2.9-4-4.9-6-3.3-3.1-4.2-3.5-10.3-3.7-3.8-0.2-7.4 0.2-8.4 0.8zm106.7 0.1c-2.2 0.6-5.7 2.2-7.7 3.7-2 1.4-4.6 4.2-5.7 6.1-1.1 2-2.4 6.2-3 9.6-0.6 3.5-0.6 9.4-0.2 14.5 0.5 4.6 1.2 9.4 1.6 10.5 0.5 1 1.7 3.3 2.9 4.9 1.1 1.6 3.9 3.7 6.1 4.7 2.5 1.2 6.4 1.8 10.7 1.8 6.7 0 6.8 0 6.8-2.7 0-1.5 0.2-3.8 0.5-5 0.4-2.1 0.1-2.3-4.8-2.3-2.9 0-5.7-0.3-6.3-0.7-0.7-0.4-2.1-2.3-3.3-4.3-1.7-2.8-2.1-5.1-2.1-11.7 0-5.2 0.6-9.6 1.5-12 0.9-2.1 2.4-4.6 3.3-5.5 1.2-1.3 3.2-1.8 6.7-1.8 2.7 0 6 0.7 7.2 1.5 1.3 0.9 3 2.9 3.8 4.5 1.1 2.4 1.5 7.1 1.5 21.6v18.4h12c-1.1-39.2-1.4-41.9-3.4-45.9-1.2-2.5-3.7-5.4-5.6-6.7-1.9-1.2-5.5-2.7-8-3.3-2.5-0.5-5.9-1-7.5-0.9-1.7 0-4.8 0.5-7 1zm-62 1.3c-1.7 0.7-4 2.3-5.3 3.4-1.2 1.2-2.7 3.4-3.3 4.9-0.5 1.5-0.8 4-0.5 5.5 0.3 1.5 1.8 3.5 3.2 4.5l2.7 1.7c-4.6 6.4-4.9 8-5.3 21.2l-0.5 14.4c9.3-1 12-1.4 12.1-1.4 0.1-0.1 0.7-6.8 1.3-14.9 0.6-8.4 1.7-16.2 2.6-18.3 1.4-3.4 1.4-3.5-1.3-6l-2.7-2.5c4.7-4.2 6.6-5 9.5-5 3 0 4.6 0.7 6.7 2.9 1.5 1.5 3.1 4.3 3.5 6.2 0.5 1.9 0.8 11.2 0.8 20.7v17.3l12.5-0.1c-0.5-25.9-0.8-35.7-1-38.5-0.4-3.4-1.5-6.3-3.5-9.2-1.7-2.3-4.5-5.1-6.3-6.2-2.6-1.7-4.9-2-12.7-2-5.7 0-10.7 0.6-12.5 1.4zm-1243.6 325.2l0.1 209.4 1343.5-0.1c-0.6-323.5-0.8-417.5-0.9-417.6-0.1 0-302.2-0.3-671.5-0.6l-671.3-0.5zm245.6 277c-1.1 0.3-3.6 1-5.5 1.6-1.9 0.6-5 2.5-6.9 4.2-1.9 1.7-4.2 4.7-5.3 6.8-1 2.1-2.3 6.6-2.8 10-0.6 3.4-1 9.2-1 12.8 0 3.5 0.4 9.2 1 12.5 0.5 3.3 2.1 8.3 3.5 11.2 1.3 2.9 3.9 6.4 5.7 7.7 2.4 1.8 5.3 2.7 10.8 3.4 4.8 0.6 8.7 0.6 11-0.1 1.9-0.5 5-2.1 6.9-3.6 1.9-1.5 4.5-4.9 5.8-7.6 1.2-2.8 2.3-5.9 2.3-7 0-1.9-0.6-2-5.8-1.7-3.1 0.2-5.9 0.9-6.1 1.5-0.3 0.6-1.9 2.6-3.7 4.4-2.5 2.5-4.1 3.3-7.1 3.3-2.1 0-4.9-0.8-6.3-1.8-1.3-1-3-3.2-3.7-5-0.9-2.1-1.3-8-1.3-17.2 0-8.4 0.4-15 1.1-16.3 0.6-1.2 2.1-3.3 3.3-4.5 1.6-1.8 3.1-2.3 7.3-2.3 4.4 0 5.6 0.5 7 2.5 1 1.3 2.6 3.7 3.5 5.5 1.6 2.7 2.3 3 6 3 2.4 0 4.8-0.3 5.4-0.7 0.8-0.5 0.6-2.5-0.7-7-1.6-5.1-2.8-7-6.7-10.3-3.1-2.6-6.3-4.3-9.5-5-2.6-0.5-5.1-0.9-5.5-0.8-0.4 0-1.6 0.3-2.7 0.5zm111.5 1.3c-3 1.1-6.6 2.8-7.9 3.8-1.3 0.9-3.8 4.5-5.5 7.8l-3.1 6c0 31.6 0.2 33.4 2.3 38 1.3 2.7 3.3 6 4.5 7.3 1.2 1.3 4.4 3.5 7.2 4.7 4.3 2 6 2.3 12 1.8 3.8-0.4 8.2-1.2 9.7-2 1.5-0.7 3.9-2.8 5.3-4.6 1.3-1.8 3.1-5.4 4-8 0.8-2.6 1.3-5.2 1-5.7-0.3-0.6-3-1-6-1-5.3 0-5.6 0.1-6.8 3.2-0.8 1.8-2.4 4-3.8 5-1.3 1-4 1.8-5.9 1.8-1.9 0-4.6-0.8-6-1.9-1.4-1-3.1-3.1-3.8-4.7-1-2.1-1.2-7.3-1-18.4 0.3-14.2 0.5-15.8 2.5-18.8 2.1-3 2.7-3.2 7.5-3.3 3.1 0 6.2 0.7 7.5 1.5 1.3 0.9 2.7 3.3 3.3 5.6l1 4h12.5c-1.2-5.9-2.6-9.8-3.9-12.5-1.9-3.9-3.6-5.6-7.3-7.7-2.7-1.4-6.8-2.9-9.3-3.2-3.2-0.4-6.2 0-10 1.3zm177.5-1.5c-0.6 0.2-2.7 0.6-4.8 1-2.4 0.3-5.2 1.9-8 4.4-2.3 2.1-5.2 6.1-6.4 8.8-1.5 3.5-2.3 8-2.8 16.4-0.4 7.1-0.2 13.9 0.5 18 0.6 3.5 2.3 8.7 3.8 11.4 1.5 2.7 4.5 6.3 6.7 7.8 3.5 2.6 4.8 2.9 12 3 5.5 0.1 8.9-0.4 11-1.5 1.6-0.9 4.2-2.8 5.6-4.4 1.5-1.6 3.3-4.2 4.1-5.8 0.8-1.7 1.8-4.3 2.1-5.8 0.6-2.3 0.3-2.8-1.6-3.2-1.2-0.3-3.5-0.5-5-0.5-1.5 0-3.4 0.2-4.2 0.5-0.8 0.2-1.5 1.1-1.5 2 0 0.8-1.3 2.8-2.9 4.5-2.2 2.2-3.9 3-6.5 3-2 0-4.5-0.5-5.6-1-1.1-0.6-2.9-2.8-4-5-1.7-3.4-2-6-2-17.3 0-7.3 0.4-14.9 1-17 0.5-2.1 2-4.4 3.2-5.3 1.3-0.8 4.2-1.5 6.5-1.5 2.4 0 5 0.4 5.9 0.8 0.9 0.4 2.3 2 3 3.5 0.8 1.5 1.4 3.7 1.4 4.8 0 1.7 0.6 2 5.8 2 3.2 0 6-0.3 6.3-0.5 0.2-0.3 0-2.6-0.4-5.3-0.4-2.6-2-6.5-3.5-8.7-1.6-2.2-4.6-5-6.8-6.2-2.1-1.2-5.7-2.4-7.9-2.7-2.2-0.3-4.5-0.4-5-0.2zm329 0.4c-1.7 0.4-5 1.9-7.5 3.2-3.6 2-5.2 3.8-8 9-3.3 6.2-3.5 7-3.8 19-0.3 6.9 0 14.9 0.6 18 0.7 3.1 2.7 7.8 4.7 11 2 3 4.8 6.3 6.3 7.4 1.6 1.1 5.7 2.3 10.2 2.8 7.2 1 7.7 0.9 12.9-1.9 4.6-2.4 6-3.8 8.3-8.3 2.4-4.7 3-7.2 3.6-16.8l0.7-11.3-24.5 0.1v11l12.5-0.1c-1.3 10.2-2 12.1-4 13.8-1.8 1.6-3.8 2.3-6.8 2.3-2.3 0-5.2-0.7-6.5-1.5-1.2-0.9-2.9-3-3.8-4.8-1-2-1.8-7-2.1-13.2-0.3-5.5-0.1-12.7 0.5-16 0.9-4.6 1.9-6.7 4.2-8.8 2.3-2.1 4-2.7 7.5-2.7 3.4 0 5.1 0.5 7 2.5 1.4 1.3 2.5 3.4 2.5 4.5 0 1.1 0.7 2.2 1.5 2.5 0.8 0.2 3.5 0.5 6 0.5 4 0 4.5-0.3 4.5-2.3 0-1.2-0.7-4.3-1.6-6.7-0.8-2.5-2.5-5.6-3.7-6.9-1.2-1.3-3.8-3.2-5.7-4.1-1.9-1-5.5-2.1-8-2.4-2.5-0.3-5.9-0.2-7.5 0.2zm-826.5 6.7v6.5h16v57h13c-0.8-12.1-1.2-24.9-1.5-36.3l-0.5-20.7h17v-13h-44zm51.7-5.9c-2.6 0.3-2.7 0.5-1.6 4.1 0.5 2.1 4.8 17.4 9.5 34 4.6 16.6 8.4 30.5 8.4 30.8 0 0.2 3.4 0.5 7.5 0.5 4.1 0 7.5-0.3 7.5-0.5 0-0.3 3.2-11.9 7.1-25.8 3.8-13.9 8.1-29.2 9.5-34l2.4-8.7c-5.8-1-8.6-0.9-10-0.4-1.7 0.6-2.8 2.1-3.8 5.4-0.7 2.4-3.6 13.2-6.4 24-2.8 10.7-5.4 19.9-5.9 20.5-0.4 0.5-1.4-1.4-2.3-4.5-0.8-3.1-3.7-14.4-6.5-25.3-2.8-10.9-5.1-20-5.1-20.2 0-0.3-1.7-0.5-3.8-0.4-2 0.1-5 0.3-6.5 0.5zm57.3 34.3v35.1c19.7-1 27.2-1.6 29.2-2.1 2.1-0.5 5.6-2.6 7.8-4.7 2.7-2.5 4.7-5.7 6.1-9.7 1.7-4.8 2.1-8.5 2.1-17.5 0.1-8.2-0.4-13.3-1.7-17.5-1.3-4.6-2.9-7.2-6.4-10.7-3-3-6-5-8.6-5.6-2.2-0.6-9.5-1.3-16.2-1.7l-12.3-0.6zm136 0v35h12c0-32.3 0.4-40.2 1-40.5 0.6-0.3 4.1 5.5 7.9 12.8 3.8 7.3 8.6 16.4 10.8 20.2l3.8 7 12.5 0.5v-70h-12c-0.1 41.4-0.2 43.3-1.6 41.5-0.8-1.1-6-10.9-11.4-21.7l-10-19.8h-13zm133.3-31.2c0.4 2 0.7 4.7 0.7 6 0 1.9 0.5 2.2 3.8 2.2 2 0 5.4 0.4 7.5 0.8l3.7 0.7v56.5h13v-56.5c5-1.2 8.4-1.5 10.8-1.5 4.2 0 4.2 0 4.2-3.7 0-2.1 0.3-4.8 0.5-6l0.5-2.3h-45.3zm51.7 31.3v35h38c-0.8-3.5-1-6-1-7.8v-3.2c-10.5 0-15.9-0.4-18.8-0.8l-5.3-0.7 0.1-16.5h22v-12h-22v-17h24v-12h-37zm103 0v35h12v-28h19v28h13v-70h-13v29h-19v-29h-12zm55.4-34.3c-0.4 0.3-0.7 16.2-0.6 35.2l0.1 34.6c5.1-1.2 7.8-1.5 9.3-1.5h2.8c0.1-26.8 0.5-35.7 0.8-37.2 0.6-2.4 2-0.2 11.4 17.2l10.8 20c6.6 0 9.5 0.2 10.7 0.5l2.3 0.5v-70h-13.1l-0.4 42.2c-16.3-31.4-21.5-40.7-22-40.8-0.6-0.1-3.4-0.5-6.2-0.8-2.9-0.3-5.5-0.2-5.9 0.1zm72.1 1.1c-2.2 1.1-5.3 3.2-6.7 4.8-1.5 1.6-3.6 4.9-4.7 7.4-1.1 2.4-2.5 8.5-3.1 13.5-0.8 6.4-0.8 11.3 0 17 0.5 4.4 1.9 10 3 12.5 1.2 2.4 3.3 5.8 4.8 7.3 1.4 1.6 4 3.6 5.7 4.4 1.9 1.1 5.7 1.7 11 1.7 7.2 0.1 8.6-0.2 12.3-2.7 2.3-1.5 5.5-4.6 7.2-7 1.8-2.5 3.6-7 4.6-11.2 1.2-5.5 1.4-9.7 0.8-19-0.7-10.7-1.1-12.7-3.8-18q-3.1-5.9-7.5-9c-3.8-2.6-5.3-3.1-12-3.3-5.9-0.2-8.5 0.1-11.6 1.6zm46-1.2c-0.5 0.4-0.8 15.6-0.7 35l0.2 34.4h38c-1-8.2-1.5-10.8-1.7-11-0.3-0.3-5.5-0.7-11.7-0.9l-11.1-0.4c-1.2-21.1-1.5-33.9-1.5-42v-14.7c-5.1 0-7.4-0.3-8.6-0.6-1.1-0.3-2.4-0.2-2.9 0.2zm55.5 1.2c-2 1.1-4.8 3.4-6.4 5.3-1.6 1.9-3.8 5.2-4.9 7.4-1.7 3.2-2.2 6.4-2.5 16-0.3 7.5 0 14.6 0.8 19 0.9 4.6 2.4 8.5 4.4 11.5 1.7 2.5 5 5.5 7.6 6.9 3.6 2 5.8 2.4 11.5 2.4 3.8-0.1 8.2-0.6 9.7-1.2 1.5-0.6 4.6-2.8 6.8-4.9 2.6-2.3 4.9-5.8 6.2-9.2 1.4-3.8 2.2-8.8 2.5-16 0.3-7.4 0-12.7-1.2-18-0.8-4.2-2.7-9.2-4.1-11.3-1.3-2-4.3-5-6.6-6.5-3.6-2.3-5.4-2.8-12.3-3-6.3-0.2-8.8 0.2-11.5 1.6zm190-0.7c-1.4 0.6-4 2.1-5.8 3.4-1.8 1.4-4.3 4.6-5.6 7.2-1.3 2.6-2.7 6.1-3.1 7.8-0.3 1.6-0.7 8.6-0.7 15.5-0.1 9.7 0.3 13.8 1.8 18.4 1 3.3 3.4 7.6 5.4 9.9 1.9 2.2 4.8 4.6 6.5 5.5 1.8 0.9 5.8 1.5 10.5 1.5 5 0.1 8.4-0.4 10.5-1.5 1.6-0.9 4.1-2.9 5.6-4.5 1.4-1.5 3.3-4.2 4.1-5.8 0.8-1.7 1.8-4.3 2.1-5.8 0.6-2.3 0.3-2.8-1.6-3.2-1.2-0.3-3.5-0.5-5-0.5-1.5 0-3.4 0.2-4.2 0.5-0.9 0.2-1.5 1.1-1.5 2 0 0.8-1.4 2.8-3 4.5-2.2 2.3-3.8 3-6.7 3-2.1 0-4.9-0.8-6.3-1.8-1.3-0.9-3.2-3.5-4.2-5.7-1.4-3.2-1.8-6.7-1.8-16.5 0-10.4 0.3-13.3 2-16.8 1.1-2.3 2.9-4.7 4-5.2 1.1-0.6 3.9-1 6.2-1.1 3.1 0 4.8 0.6 6.5 2.3 1.2 1.2 2.6 3.7 3.2 5.5 1 3.2 1.2 3.3 7.1 3.3h6c-1-5.1-1.7-8.1-2.3-10-0.6-2-2.3-4.8-3.7-6.4-1.4-1.7-4.3-3.8-6.5-4.8-2.6-1.1-6.3-1.8-10.5-1.7-3.6 0-7.7 0.5-9 1zm55 0.6c-1.8 1-5.1 3.8-7.3 6.3-2.2 2.5-4.5 6.6-5.3 9.5q-1.5 5-1.4 19c0 12.5 0.2 14.5 2.3 19 1.3 2.7 3.7 6.5 5.3 8.4 1.6 1.8 4.2 4 5.9 4.8 1.8 0.9 6 1.6 10.5 1.6 5.9 0.1 8.3-0.3 11.7-2.1 2.4-1.2 5.3-3.7 6.6-5.5 1.4-1.8 3.2-4.8 4.2-6.7 1.5-2.8 1.9-6.5 2.3-17.5 0.2-9.3-0.1-16.1-0.9-20-1.1-5.1-2.2-6.9-6.4-11.2-3.3-3.4-6.4-5.5-9-6.2-2.2-0.6-6.5-1.1-9.5-1.1-3.2 0-7 0.7-9 1.7zm112.7-1c-1.5 0.3-3.2 1-3.7 1.6-0.6 0.7-1 14.7-1 34.4v33.3h37v-12h-24v-58c-4.3 0.2-6.8 0.5-8.3 0.7zm31.3 5.8v6.5h16v57h13c-1-19.8-1-32.6-0.7-41.3l0.7-15.7h15v-13h-44zm-293-4.8c0 0.4 4.1 9.5 9.2 20.3l9.2 19.5 0.6 28.5h13v-28c13.9-30.6 17.9-39.9 17.9-40.3 0.1-0.4-2.9-0.6-6.5-0.5l-6.7 0.3c-8.3 22.8-11.1 29.5-11.5 29.5-0.4 0-3.3-6.7-6.4-14.8l-5.6-14.7c-10.2-0.5-13.2-0.3-13.2 0.2zm345.7 5.9c-0.4 3.8-0.7 19.4-0.7 34.6v27.8c26.2-0.5 28-0.8 32.4-3 3.2-1.7 6-4.2 8.3-7.5 1.8-2.8 3.8-6.6 4.3-8.5 0.5-2 1-9.6 1-17 0-7.5-0.5-15.1-1-17-0.5-2-2.7-5.5-4.8-7.9-2-2.4-5.1-5.1-6.7-6-2.2-1.1-6.9-1.6-17.5-1.9l-14.6-0.4zm-128.6 49.3c-2.1 0.8-2.4 1.5-2.3 5 0.1 2.2 0.4 4.7 0.7 5.5 0.3 0.8 1.2 1.5 2 1.5 0.8 0 1.5 0.5 1.5 1 0 0.6-1.2 3.4-2.6 6.3-1.4 2.9-2.2 5.6-1.7 6 0.4 0.4 1.9 0.5 3.3 0.2 1.4-0.3 3.5-2 4.7-3.8 1.3-1.7 3-5 3.8-7.2 0.8-2.2 1.4-6.6 1.5-9.7v-5.8c-6.6 0.1-9.6 0.6-10.9 1zm-25.1 5.8c0 3.1 0.1 5.9 0.4 6.2 0.2 0.3 2.9 0.4 6 0.3l5.6-0.3v-12h-12zm207 0.8v6.5c9.3 0 12.2-0.4 12.3-0.8 0.2-0.4 0.2-3.3 0-6.5l-0.3-5.7h-12z"/><path fill-rule="evenodd" class="a" d="m676.9 285.1l28.3 0.5c15.6 0.2 46.8 0.6 69.3 0.9 34.8 0.4 42.7 0.7 52 2.4 6 1.1 15 3.1 20 4.6 5 1.5 14 5 20 7.9 6 2.8 13.7 7 17 9.1 3.3 2.2 9.3 7.1 13.4 11 4 3.9 10.1 10.6 13.4 15 3.3 4.4 8.2 12.5 10.8 18 2.6 5.5 6.2 14.3 8 19.5 1.7 5.2 3.9 13.3 5 18 1 4.7 2.5 14.1 3.4 21 0.8 6.9 1.5 18.6 1.5 26 0 7.4-0.4 18.2-1 24-0.6 5.8-1.8 14.3-2.6 19-0.9 4.7-3.1 13.7-5 20-1.9 6.3-5.7 16-8.3 21.5-2.7 5.5-6.9 12.7-9.3 16-2.5 3.3-6.9 8.7-9.9 11.9-3 3.2-9 8.8-13.4 12.3-4.4 3.5-12.9 8.8-19 11.8-6 3-14.6 6.6-19 8-4.4 1.4-12.5 3.5-18 4.7-9.7 2.2-12.3 2.2-156.5 2.8zm-512.4 1.1c36.9-0.1 91 0.1 173.5 1.3v61.5h-92v242h-70v-242h-95v-62l8.3-0.3c4.5-0.2 38.4-0.4 75.2-0.5zm268-0.2l5.8 18.8c3.2 10.3 11 34.9 17.3 54.7 6.3 19.8 19.4 61.1 29.2 91.9 9.7 30.7 18.2 55.9 18.7 55.8 0.6 0 7.4-19.8 15.3-43.9 7.8-24.1 24-73.9 57.7-177.4l38.3 0.1c21 0 38.2 0.3 38.2 0.7 0 0.4-15.9 48.5-35.4 106.8-19.5 58.3-42.2 126.2-50.5 151-8.4 24.7-15.7 45.3-16.4 45.7-0.6 0.4-22 0.8-93.7 0.8l-15.9-48.3c-8.8-26.5-26.5-80.6-39.4-120.2-13-39.6-26.8-82.1-30.7-94.5-4-12.4-8.5-26.6-10-31.5-1.6-5-2.7-9.4-2.4-9.8 0.3-0.4 17-0.7 73.9-0.7zm542.6 0.9l170.2 0.3c159.7 0.3 170.5 0.4 174 2 2 1 5.8 3.7 8.3 6 2.6 2.4 5.8 6.3 9.9 13.3v263l-2.6 4.5c-1.4 2.5-4.1 5.8-6 7.4-1.9 1.5-5.2 3.8-7.4 5-4 2.1-4.3 2.1-190 2.5l11-10.5c6.1-5.8 13-11.9 15.5-13.5 2.5-1.7 6.8-3.7 9.5-4.6 4-1.3 12.9-1.7 44.5-2.4 38.4-0.8 39.8-0.9 47.5-3.3 4.4-1.4 10-3.8 12.5-5.4 2.5-1.6 8.5-7 13.3-12.1 6.1-6.3 9.7-11.2 15.2-22.6l0.5-183.5-2.7-5.2c-1.5-2.8-4.6-7-6.8-9.3-2.2-2.2-6.5-5.5-15-10.3l-163-1.1-138.5 138.4zm145.7 37h74.1c71 0 74.3 0.1 77.9 1.9 2.1 1.1 5 3.2 6.4 4.8 1.5 1.5 3.4 4.3 4.3 6.1 1.4 2.9 1.6 12 1.6 172.7l-3.8 6.4c-2.1 3.6-7.2 9.6-11.7 13.9-4.8 4.6-10.2 8.6-19 12.7l-41 0.7c-24.7 0.4-43 1.1-46 1.8-2.8 0.6-6.8 1.9-9 2.9-2.5 1.1-12.3 9.8-47 43l-132.5 0.1v-40h89.5l75.5-76h72l1.4 2.8c0.8 1.5 2.4 3.7 3.7 4.9 1.3 1.2 4.1 2.9 6.1 3.8 2.1 0.8 5.9 1.5 8.5 1.5 2.9 0 6.5-0.9 9.2-2.2 2.5-1.3 5.6-4 7.1-6.3 1.5-2.2 3.2-5.8 3.8-8 0.8-2.8 0.8-5.3 0.1-8.5-0.6-2.5-2.1-6.4-3.5-8.7-1.3-2.4-2.9-4.3-3.4-4.3-0.6 0-2.5-1-4.3-2.3-1.8-1.2-4.9-2.6-7-3-2.6-0.5-5.2-0.1-9 1.3-3.2 1.2-6.6 3.4-9 6-2 2.2-3.7 4.5-3.7 5 0 0.7-13.6 1-77.5 1.1l-76.5 75.9h-83v-30h63l6.7-5.9c3.7-3.3 28.2-27.2 101.8-100l65.5-0.1 1.6 2.8c0.8 1.5 3.2 4 5.2 5.5 2 1.5 5.5 3.3 7.7 3.8 2.7 0.7 5.5 0.7 9 0 3-0.7 6.6-2.4 8.9-4.3 2.2-1.8 4.8-5.1 5.7-7.3 1-2.2 1.9-6.1 1.9-8.7 0-2.6-0.7-6.5-1.6-8.5-0.8-2.1-2.7-5.1-4.2-6.6-1.5-1.6-3.8-3.4-5.2-4.1-1.4-0.7-4.5-1.6-7-1.9-2.5-0.4-6.3-0.2-8.5 0.3-3 0.6-5.3 2.3-14 11.9l-73 0.1-106 106-57 0.1-0.8-3.3c-0.4-1.8-0.7-5.6-0.4-13.4zm110.8 59c2.6 0 3.8 0.6 5 2.5 0.8 1.4 1.5 3.6 1.5 5 0 1.5-1 3.1-2.3 4-1.2 0.8-3.4 1.5-4.7 1.5-1.4 0-3.3-0.8-4.3-1.8-1-0.9-1.8-2.8-1.9-4.2 0-1.4 0.7-3.5 1.6-4.8 1.2-1.5 2.7-2.2 5.1-2.2zm-1 77c1.4 0 3.6 1.1 5 2.5 1.3 1.4 2.4 3.3 2.4 4.3 0 0.9-1 2.7-2.2 4-1.3 1.3-3.4 2.3-5 2.2-1.8 0-3.4-0.9-4.8-2.7-1.1-1.6-2-3.3-2.1-3.9 0-0.6 0.9-2.3 2.1-3.8 1.3-1.5 3.2-2.6 4.6-2.6zm-493.6 267c1.7 0 4.4 0.7 6.1 1.5 1.8 0.9 3.8 3.2 4.9 5.8 1.7 3.5 2 6.3 2 16.7 0 9.8-0.4 13.4-1.8 16.5-1 2.2-2.9 4.8-4.2 5.8-1.5 1.1-4.2 1.7-7.2 1.7-4.2 0-5-0.4-7.2-3.2-1.3-1.8-2.9-5.3-3.5-7.8-0.5-2.5-1-8.5-1-13.5 0-4.9 0.5-10.8 1.1-13 0.6-2.2 2.6-5.5 4.4-7.2 2.3-2.3 4.2-3.3 6.4-3.3zm102 0c1.7 0 4.4 0.7 6.1 1.5 1.8 0.9 3.7 3.2 4.9 5.8 1.7 3.5 2 6.4 2 17 0 7-0.4 13.9-1 15.5-0.6 1.5-2.3 4-3.8 5.5-2.1 2.2-3.5 2.8-6.9 2.7-2.4 0-5.4-0.8-6.8-1.7-1.4-1-3.2-3.6-4.1-5.8-0.9-2.2-1.8-8-2.1-13-0.3-5.4 0-11.4 0.8-15 0.9-4.4 2.1-6.8 4.5-9.2 2.3-2.3 4.2-3.3 6.4-3.3zm244.8 0c1.5 0 4.2 0.9 6 2 1.8 1.1 4.1 3.9 5.2 6.3 1.6 3.4 2 6.4 2 15.2 0 6.1-0.4 12.6-0.9 14.5-0.5 1.9-2.3 5-4 6.8-2.5 2.6-3.8 3.2-7.3 3.2-2.6 0.1-5.2-0.6-6.7-1.8-1.4-1-3.3-4.1-4.3-6.8-1.3-3.5-1.8-7.8-1.7-14.9 0-5.5 0.4-11.8 0.9-14 0.6-2.5 2.3-5.2 4.5-7.2 2.2-2.1 4.6-3.3 6.3-3.3zm-888.4 1.4c4.3 0.5 6.9 1.3 8.5 2.9 1.3 1.2 3 3.7 3.8 5.5 0.9 2 1.4 7.1 1.3 14 0 5.9-0.5 12.5-1.2 14.6-0.7 2.1-2.5 5-4 6.3-2.2 1.9-3.9 2.3-15.2 2.3l-0.8-6.7c-0.4-3.7-0.7-12.9-0.6-20.5 0-7.5 0.5-14.9 1.1-16.4 1-2.6 1.2-2.7 7.1-2zm1087.7-0.4h5c2.7 0 6.5 0.7 8.5 1.5 2.4 1.1 4 2.8 5.4 5.8 1.6 3.4 2 6.4 2 16 0.1 7.5-0.4 12.9-1.3 15-0.7 1.7-2.6 4.2-4.2 5.5-2.4 1.8-4.2 2.3-15.4 2.2z"/><path class="b" d="m747.7 415.3c-0.4 36.4-0.7 77.3-0.7 90.9v24.8c12-0.1 25.2-0.5 37-1 12-0.5 24.6-1.6 28.5-2.4 3.8-0.9 10.8-3.4 15.5-5.8 6.8-3.3 10.3-5.9 17.1-12.7 6.9-6.9 9.4-10.2 12.7-17.1 2.3-4.7 5.3-13.2 6.7-19 2.2-8.6 2.8-13.7 3.2-28 0.4-13.6 0.2-20.1-1.2-29-0.9-6.3-3-15.1-4.6-19.5-1.7-4.4-4.6-10.7-6.6-14-2.1-3.3-6.2-8.6-9.3-11.8-3-3.3-8.7-7.8-12.5-10.2-3.9-2.4-10.6-5.6-15-7.1-7.5-2.5-9.6-2.7-33-3.5-13.8-0.4-27.7-0.8-31.1-0.8l-6.1-0.1z"/></svg>